<?xml version="1.0" standalone="no"?>
<!DOCTYPE svg PUBLIC "-//W3C//DTD SVG 20010904//EN"
 "http://www.w3.org/TR/2001/REC-SVG-20010904/DTD/svg10.dtd">
<svg version="1.0" xmlns="http://www.w3.org/2000/svg"
 width="636.000000pt" height="1260.000000pt" viewBox="0 0 636.000000 1260.000000"
 preserveAspectRatio="xMidYMid meet">

<g transform="translate(0.000000,1260.000000) scale(0.100000,-0.100000)"
fill="#000000" stroke="none">
<path d="M5735 12426 c-40 -17 -82 -67 -95 -114 -5 -20 -23 -109 -40 -197 -44
-238 -95 -395 -182 -555 -115 -214 -255 -329 -843 -689 -260 -159 -599 -392
-735 -504 -121 -101 -279 -265 -351 -366 -143 -201 -258 -515 -303 -831 -50
-345 -48 -834 4 -1155 29 -182 130 -925 130 -960 0 -110 -64 -192 -180 -232
-93 -32 -317 -81 -427 -94 -195 -22 -294 30 -324 170 -25 120 12 214 126 317
80 73 96 105 76 156 -6 15 -28 39 -49 53 -52 34 -63 60 -50 120 20 95 -19 151
-97 135 -47 -9 -74 0 -97 34 -30 45 -48 56 -85 56 -33 0 -67 -27 -78 -60 -9
-28 -47 -43 -78 -31 -39 15 -103 -12 -123 -51 -13 -25 -14 -39 -5 -73 15 -61
5 -97 -40 -141 -33 -32 -39 -45 -39 -79 0 -52 20 -79 81 -110 61 -32 96 -83
109 -161 15 -93 12 -155 -15 -258 -69 -265 7 -496 194 -591 115 -58 225 -68
382 -36 212 43 544 56 609 23 31 -15 35 -22 38 -59 2 -26 -4 -59 -16 -85 -24
-54 -194 -338 -344 -573 -369 -579 -624 -1133 -747 -1625 -65 -257 -73 -318
-80 -615 -5 -179 -11 -277 -19 -292 -18 -32 -90 -63 -148 -63 -27 0 -96 9
-154 20 -58 11 -184 29 -280 40 -96 10 -223 25 -282 32 -81 9 -121 9 -167 1
-172 -32 -320 -167 -374 -338 -9 -27 -23 -99 -31 -160 -9 -60 -27 -180 -40
-265 -13 -85 -27 -186 -31 -225 -10 -114 -26 -193 -43 -207 -8 -7 -38 -24 -66
-38 -72 -35 -81 -64 -37 -125 35 -48 34 -47 15 -157 -5 -31 -2 -41 20 -62 21
-22 34 -26 81 -26 72 0 90 -10 119 -68 32 -62 50 -77 98 -77 31 0 45 7 64 28
13 16 24 34 24 42 0 20 49 55 76 55 13 0 34 -5 48 -11 20 -10 30 -9 51 5 28
18 33 57 13 101 -16 36 3 72 50 92 45 18 52 28 52 71 0 24 -7 40 -27 55 -67
55 -90 87 -106 144 -21 73 -21 129 -2 212 9 35 22 105 30 155 29 183 62 246
136 266 32 9 64 6 186 -19 189 -39 555 -101 592 -101 36 0 134 -34 169 -59 29
-20 55 -83 72 -173 21 -108 -24 -417 -74 -517 -62 -121 -58 -269 13 -481 73
-218 181 -420 334 -623 159 -211 220 -266 313 -281 132 -22 226 76 318 332 44
124 144 483 161 576 20 119 19 261 -4 372 -23 109 -42 150 -117 240 -99 120
-160 284 -152 412 8 135 44 179 204 253 49 22 122 56 163 75 41 19 137 74 215
123 154 96 188 111 251 111 52 0 138 -42 172 -85 14 -17 55 -97 91 -176 76
-167 81 -203 39 -264 -35 -51 -36 -97 -1 -132 23 -23 30 -25 79 -18 68 8 89
-3 114 -60 15 -35 29 -49 57 -61 57 -24 89 -11 121 48 37 69 51 76 110 59 101
-29 133 -7 133 90 0 58 1 61 50 108 28 27 50 53 50 59 0 22 -21 66 -46 95 -42
50 -46 70 -23 131 23 58 20 93 -7 120 -12 13 -35 16 -102 14 -143 -2 -186 33
-297 247 -108 207 -218 345 -310 390 -56 26 -138 30 -216 11 -95 -24 -286
-121 -434 -220 -154 -103 -255 -148 -343 -154 l-62 -4 -16 38 c-50 120 104
527 301 794 218 296 446 679 553 930 109 255 230 688 267 955 14 97 50 117
129 71 23 -13 97 -38 165 -55 106 -27 141 -31 250 -31 197 0 315 34 394 113
23 23 56 76 82 133 55 118 92 166 151 195 41 19 55 21 130 15 82 -7 84 -7 109
20 29 31 33 84 10 124 -8 14 -14 28 -15 32 0 4 20 30 45 58 73 82 58 141 -44
171 -51 15 -57 26 -43 81 21 81 -35 130 -113 101 -22 -8 -48 -17 -57 -20 -11
-3 -31 9 -57 36 -63 65 -107 54 -172 -40 -15 -22 -18 -23 -59 -9 -59 20 -81
16 -112 -20 -34 -37 -36 -75 -8 -148 39 -103 16 -218 -52 -260 -19 -12 -63
-29 -98 -38 -53 -13 -73 -14 -124 -4 -79 16 -121 38 -203 108 -38 32 -98 81
-134 109 -111 87 -174 166 -214 263 -15 37 -19 89 -26 290 -11 365 -40 588
-119 916 -74 303 -100 449 -124 682 -12 112 -12 167 0 364 15 248 21 297 60
453 62 244 188 507 343 715 74 100 261 286 391 389 97 77 164 123 504 346 143
93 326 239 458 365 134 126 243 304 306 500 56 172 148 637 136 686 -11 46
-44 85 -88 105 -48 22 -80 23 -121 5z"/>
</g>
</svg>
